<?xml version="1.0" standalone="no"?>
<!DOCTYPE svg PUBLIC "-//W3C//DTD SVG 20010904//EN"
 "http://www.w3.org/TR/2001/REC-SVG-20010904/DTD/svg10.dtd">
<svg version="1.0" xmlns="http://www.w3.org/2000/svg"
 width="700.000000pt" height="700.000000pt" viewBox="0 0 700.000000 700.000000"
 preserveAspectRatio="xMidYMid meet">
<metadata>
Created by potrace 1.11, written by Peter Selinger 2001-2013
</metadata>
<g transform="translate(0.000000,700.000000) scale(0.100000,-0.100000)"
fill="#000000" stroke="none">
<path d="M3477 6884 c-13 -22 -126 -217 -252 -434 -125 -217 -236 -407 -246
-422 -11 -15 -19 -29 -19 -31 0 -3 -77 -137 -171 -298 -94 -162 -181 -312
-193 -334 -12 -22 -73 -128 -136 -235 -62 -107 -121 -208 -130 -225 -20 -35
-381 -660 -544 -940 -60 -104 -116 -201 -124 -215 -7 -14 -25 -46 -40 -71 -15
-25 -65 -112 -112 -193 -47 -81 -93 -160 -103 -177 -9 -17 -68 -119 -131 -227
-210 -366 -228 -397 -261 -452 -57 -96 -154 -270 -151 -270 2 0 30 35 62 78
61 81 463 583 474 592 3 3 42 50 86 105 65 81 228 278 322 390 10 11 57 70
107 130 49 61 92 112 96 115 3 3 77 91 164 195 147 175 417 496 468 555 12 14
45 52 72 85 28 33 52 62 55 65 3 3 30 34 60 70 30 35 65 76 77 90 11 14 65 77
118 140 54 63 120 140 146 170 81 93 90 104 128 149 20 25 49 59 64 75 16 17
51 59 79 94 29 34 54 62 57 62 3 -1 57 -60 119 -133 61 -73 122 -144 135 -157
12 -14 44 -52 72 -85 27 -33 52 -62 55 -65 5 -5 302 -354 400 -470 25 -29 50
-58 55 -64 20 -22 115 -135 304 -361 107 -126 205 -244 220 -260 14 -17 46
-55 71 -85 25 -30 47 -57 50 -60 3 -3 25 -30 50 -60 25 -30 47 -57 50 -60 3
-3 35 -41 70 -85 67 -83 83 -102 121 -145 12 -14 60 -72 107 -130 48 -58 89
-107 92 -110 3 -3 21 -25 40 -50 19 -25 47 -58 62 -75 14 -16 138 -170 275
-341 136 -170 261 -326 276 -345 l28 -34 -25 40 c-13 22 -140 240 -281 485
-142 245 -268 462 -281 482 -13 21 -24 40 -24 43 0 2 -16 29 -35 59 -19 30
-35 58 -35 61 0 3 -11 22 -23 43 -13 20 -35 57 -49 82 -14 25 -49 86 -78 135
-29 50 -64 110 -78 135 -14 25 -105 182 -202 350 -97 168 -188 325 -202 350
-14 25 -110 191 -213 370 -103 179 -196 339 -205 355 -10 17 -56 97 -104 179
-47 82 -86 150 -86 152 0 1 -18 32 -41 69 -22 37 -49 83 -60 101 -10 19 -29
51 -40 71 -12 21 -111 193 -221 383 -111 190 -211 363 -224 385 -12 22 -49 87
-82 144 l-60 103 -25 -38z"/>
<path d="M3617 4930 c123 -186 169 -258 265 -409 157 -249 562 -901 589 -949
11 -18 61 -101 113 -185 51 -84 192 -316 313 -517 121 -201 233 -387 249 -413
16 -27 37 -63 48 -80 10 -18 100 -169 200 -337 203 -340 276 -464 276 -472 0
-3 -195 -83 -432 -177 -238 -95 -442 -176 -453 -181 -21 -10 -332 -132 -525
-206 -63 -24 -124 -48 -135 -53 -24 -11 -535 -208 -589 -227 -39 -14 -40 -14
-365 112 -449 174 -983 384 -1564 616 -220 88 -277 114 -272 126 7 19 219 378
453 767 96 160 186 310 200 335 14 25 40 68 58 96 18 28 41 66 52 85 75 133
802 1318 951 1549 34 52 70 111 81 130 11 19 47 76 79 125 56 85 198 303 250
383 33 52 14 31 -180 -193 -90 -104 -166 -192 -170 -195 -3 -3 -39 -43 -79
-90 -40 -47 -76 -87 -79 -90 -3 -3 -44 -50 -91 -105 -47 -55 -90 -104 -96
-110 -5 -5 -39 -44 -75 -85 -35 -41 -66 -77 -69 -80 -3 -3 -34 -39 -70 -80
-36 -41 -67 -77 -70 -80 -3 -3 -116 -131 -250 -285 -135 -154 -259 -296 -276
-315 -17 -19 -69 -78 -114 -130 -45 -52 -96 -111 -114 -130 -17 -19 -63 -71
-101 -115 -39 -44 -74 -85 -80 -91 -5 -6 -32 -37 -60 -69 -27 -32 -57 -65 -66
-74 -12 -13 -205 -232 -329 -375 -14 -16 -36 -41 -50 -56 -14 -15 -47 -54 -75
-86 -27 -32 -57 -65 -65 -74 -8 -9 -44 -50 -79 -91 -36 -41 -72 -81 -80 -90
-9 -9 -35 -38 -58 -65 -23 -27 -54 -63 -70 -80 -15 -17 -53 -60 -83 -95 -30
-35 -77 -89 -105 -119 -27 -31 -75 -84 -105 -120 -30 -35 -74 -84 -96 -109
-23 -25 -83 -93 -133 -151 l-91 -104 83 -17 c45 -9 96 -19 112 -22 17 -3 111
-21 210 -41 99 -20 189 -38 200 -40 11 -2 90 -18 175 -35 576 -115 959 -191
980 -194 23 -5 756 -151 810 -162 14 -3 61 -12 105 -21 44 -8 123 -24 177 -35
53 -11 103 -22 112 -23 8 -1 18 -4 21 -7 2 -3 -95 -42 -218 -88 -122 -45 -231
-86 -242 -91 -33 -15 -309 -114 -500 -181 -99 -34 -183 -65 -188 -69 -5 -5
199 35 438 85 19 3 97 19 155 30 14 3 48 9 75 15 55 11 87 18 125 25 35 7 61
12 90 19 14 3 36 8 50 10 14 2 70 13 125 25 55 11 111 22 125 25 28 5 363 72
413 83 58 12 111 6 287 -31 96 -20 198 -41 225 -46 28 -4 61 -11 75 -14 14 -3
36 -8 50 -10 14 -2 61 -12 105 -21 84 -18 90 -19 170 -35 28 -5 61 -12 75 -15
106 -22 133 -27 255 -50 44 -9 95 -20 115 -25 19 -5 53 -12 75 -15 22 -4 93
-18 159 -31 128 -27 159 -26 74 1 -59 20 -254 89 -308 110 -19 7 -129 48 -245
90 -486 178 -547 202 -523 208 13 3 106 22 208 42 208 41 206 41 276 55 28 6
64 13 80 16 16 3 72 14 124 25 52 11 111 22 130 25 19 3 43 7 52 10 10 3 30 7
45 10 16 2 39 7 53 10 14 3 34 8 45 10 11 2 124 24 250 49 127 26 241 48 255
51 14 3 59 12 100 21 41 8 86 17 100 19 14 3 117 23 230 45 113 23 215 43 228
45 28 5 575 115 637 128 6 1 43 8 83 16 72 13 83 21 60 44 -19 19 -131 146
-164 185 -16 19 -38 44 -49 56 -11 12 -33 37 -50 56 -16 19 -93 106 -170 194
-77 88 -151 173 -165 189 -14 16 -30 34 -35 40 -9 9 -115 130 -264 301 -84 96
-250 285 -277 315 -18 19 -102 116 -189 215 -86 99 -169 194 -184 210 -14 17
-136 156 -271 310 -134 154 -251 287 -259 296 -9 9 -27 29 -41 45 -33 38 -506
579 -546 624 -17 19 -66 76 -110 125 -43 50 -91 104 -105 120 -15 17 -66 75
-114 130 -48 55 -101 115 -117 133 -17 19 -60 68 -96 110 -37 43 -69 79 -72
82 -3 3 -35 39 -70 80 -120 138 -121 135 -13 -30z"/>
</g>
</svg>
