<svg id="illustration" xmlns="http://www.w3.org/2000/svg" viewBox="0 0 336.53 151.93"><defs><style>.cls-1{fill:#619941;}.cls-2{fill:#7b95c9;}.cls-3{fill:#503b2c;}.cls-4{fill:#e07a2e;}.cls-5{fill:#aadff2;}.cls-6{fill:#89be4c;}.cls-7{fill:#70a842;}.cls-8{fill:#fff;}.cls-9{fill:#f2bf2f;}.cls-10{fill:#e2a43a;}.cls-11{fill:#e5c29e;}.cls-12{fill:#777d88;}.cls-13{fill:#b0b3b9;}.cls-14{fill:#303846;}.cls-15{fill:#23272f;}.cls-16{fill:#4f5766;}.cls-17{fill:#453223;}.cls-18{fill:#cc5e28;}.cls-19{fill:#ac4825;}</style></defs><title>2-1</title><path class="cls-1" d="M1978.27,377.24a20.93,20.93,0,0,0-20.93,20.93h41.87A20.94,20.94,0,0,0,1978.27,377.24Z" transform="translate(-1879.94 -246.24)"/><path class="cls-2" d="M2041,274.66c0-.62.18-1.21,0.18-1.84a26.54,26.54,0,0,0-49-14.12,20.55,20.55,0,0,0-30.68,16H2041Z" transform="translate(-1879.94 -246.24)"/><rect class="cls-3" x="82.89" y="127.21" width="5.25" height="24.73"/><rect class="cls-4" x="113.27" y="41.83" width="113.72" height="110.1"/><rect class="cls-5" x="162.74" y="106.81" width="17.28" height="45.12"/><rect class="cls-5" x="120.82" y="106.81" width="36.3" height="32.7"/><rect class="cls-5" x="186.2" y="106.81" width="36.05" height="32.7"/><path class="cls-6" d="M1959.1,385.81a12.36,12.36,0,0,0-12.36,12.36h24.73A12.36,12.36,0,0,0,1959.1,385.81Z" transform="translate(-1879.94 -246.24)"/><path class="cls-7" d="M2189.52,381.52a16.65,16.65,0,0,0-16.65,16.65h33.3A16.65,16.65,0,0,0,2189.52,381.52Z" transform="translate(-1879.94 -246.24)"/><path class="cls-2" d="M2113.39,299.38c-0.05-.8-0.24-1.56-0.24-2.38a34.39,34.39,0,0,1,63.55-18.3,26.63,26.63,0,0,1,39.77,20.68H2113.39Z" transform="translate(-1879.94 -246.24)"/><circle class="cls-8" cx="48.45" cy="69.94" r="14"/><polygon class="cls-8" points="40.77 75.51 36.5 89.39 48.01 80.01 40.77 75.51"/><path class="cls-9" d="M1930.23,351.76a1.81,1.81,0,0,1-1.81,1.81h-5.81a19.17,19.17,0,0,1-7.92-1.7l-4-1.81a1.81,1.81,0,1,1,1.48-3.3l4,1.81a15.57,15.57,0,0,0,6.44,1.38h5.81A1.81,1.81,0,0,1,1930.23,351.76Z" transform="translate(-1879.94 -246.24)"/><rect class="cls-10" x="45.24" y="103.71" width="0.49" height="3.61"/><path class="cls-11" d="M1927.4,353.57h1a1.81,1.81,0,1,0,0-3.62h-1v3.62Z" transform="translate(-1879.94 -246.24)"/><rect class="cls-12" x="37.27" y="138.4" width="4.76" height="1.69"/><rect class="cls-13" x="1908.88" y="385.39" width="10.55" height="0.79" transform="matrix(0.99, -0.1, 0.1, 0.99, -1909.11, -51)"/><polygon class="cls-14" points="34.81 135.06 34.81 138.4 44.86 138.4 44.86 138.4 44.86 137.19 40.24 135.06 34.81 135.06"/><rect class="cls-15" x="34.82" y="137.43" width="10.05" height="0.98"/><path class="cls-5" d="M1914.69,366V381.3h5.14l0.91-13.08a2.11,2.11,0,0,0-2.1-2.25h-3.95Z" transform="translate(-1879.94 -246.24)"/><path class="cls-5" d="M1903.48,371.4h16.43V368a2,2,0,0,0-2-2h-14.41v5.43Z" transform="translate(-1879.94 -246.24)"/><path class="cls-15" d="M1918.86,386.33a11.8,11.8,0,1,1,11.8,11.8A11.82,11.82,0,0,1,1918.86,386.33Zm1.76,0a10,10,0,1,0,10-10A10.06,10.06,0,0,0,1920.62,386.33Z" transform="translate(-1879.94 -246.24)"/><path class="cls-15" d="M1879.94,386.33a11.8,11.8,0,1,1,11.8,11.8A11.82,11.82,0,0,1,1879.94,386.33Zm1.76,0a10,10,0,1,0,10-10A10.06,10.06,0,0,0,1881.7,386.33Z" transform="translate(-1879.94 -246.24)"/><circle class="cls-13" cx="11.8" cy="140.09" r="2.51"/><circle class="cls-13" cx="50.62" cy="140.16" r="2.06"/><rect class="cls-4" x="1904.78" y="367.29" width="1.76" height="19.57" transform="translate(-1898.91 394.57) rotate(-19)"/><path class="cls-4" d="M1891.75,387.2h17.11a0.88,0.88,0,0,0,0-1.76H1893.5l10.33-13.93h19.22a0.88,0.88,0,0,0,0-1.76h-19.66a0.88,0.88,0,0,0-.71.36L1891,385.8A0.88,0.88,0,0,0,1891.75,387.2Z" transform="translate(-1879.94 -246.24)"/><polygon class="cls-4" points="29.48 140.76 45.54 127.39 44.4 126.05 28.34 139.42 29.48 140.76"/><path class="cls-15" d="M1902.09,369.25a5.75,5.75,0,0,1-3.8-1.45v-1.4h8.77A5.78,5.78,0,0,1,1902.09,369.25Z" transform="translate(-1879.94 -246.24)"/><path class="cls-9" d="M25,100h5.13a3.65,3.65,0,0,1,3.65,3.65v16.09a0,0,0,0,1,0,0H21.36a0,0,0,0,1,0,0V103.64A3.65,3.65,0,0,1,25,100Z"/><polygon class="cls-16" points="21.37 148.46 21.37 151.79 31.42 151.79 31.42 151.79 31.42 150.58 26.51 148.46 21.37 148.46"/><rect class="cls-14" x="21.37" y="150.82" width="10.05" height="0.98"/><rect class="cls-10" x="27.21" y="100.78" width="0.49" height="18.95"/><path class="cls-10" d="M1912.83,363.93h-0.49v-2.38a3.4,3.4,0,0,1-3-3.26h-3.77a3.4,3.4,0,0,1-3,3.26v2.38h-0.49v-2.85h0.24a2.91,2.91,0,0,0,2.78-3v-0.24h4.73v0.24a2.91,2.91,0,0,0,2.78,3h0.24v2.85Z" transform="translate(-1879.94 -246.24)"/><rect class="cls-10" x="21.37" y="117.45" width="12.35" height="0.49"/><path class="cls-4" d="M1930.66,387.2a0.88,0.88,0,0,0,.81-1.23L1922,364v-3.74h-4a0.88,0.88,0,0,0,0,1.76h2.25l0.07,2.51,9.5,22.1A0.88,0.88,0,0,0,1930.66,387.2Z" transform="translate(-1879.94 -246.24)"/><rect class="cls-4" x="39.97" y="114.07" width="5.1" height="1.72" rx="0.86" ry="0.86"/><path class="cls-4" d="M1917.84,362a0.79,0.79,0,0,1-.38-0.1l-2.92-1.57a0.79,0.79,0,1,1,.75-1.4l2.92,1.57A0.79,0.79,0,0,1,1917.84,362Z" transform="translate(-1879.94 -246.24)"/><path class="cls-4" d="M1924.28,362a0.79,0.79,0,0,1-.71-0.44l-0.78-1.57a0.79,0.79,0,1,1,1.42-.71l0.78,1.57A0.79,0.79,0,0,1,1924.28,362Z" transform="translate(-1879.94 -246.24)"/><circle class="cls-15" cx="28.91" cy="140.09" r="3.8"/><rect class="cls-11" x="47.45" y="102.4" width="0.97" height="2.63" rx="0.49" ry="0.49"/><path class="cls-13" d="M1898.25,387.79a0.4,0.4,0,0,1,0-.79l10.48-1.07a0.38,0.38,0,0,1,.43.35,0.4,0.4,0,0,1-.35.43l-10.48,1.07h0Z" transform="translate(-1879.94 -246.24)"/><rect class="cls-15" x="15.93" y="140.32" width="4.76" height="1.69"/><polygon class="cls-5" points="21.37 119.73 21.37 148.46 26.51 148.46 27.58 119.73 21.37 119.73"/><path class="cls-9" d="M1897.79,368.28a1.89,1.89,0,0,1-1.8-2l0.28-6.08a20.07,20.07,0,0,1,2.16-8.2l2.09-4.13a1.89,1.89,0,1,1,3.38,1.71l-2.09,4.13a16.31,16.31,0,0,0-1.76,6.67l-0.28,6.08A1.89,1.89,0,0,1,1897.79,368.28Z" transform="translate(-1879.94 -246.24)"/><path class="cls-11" d="M1896,365L1896,366.3a1.89,1.89,0,1,0,3.78.17l0.06-1.27Z" transform="translate(-1879.94 -246.24)"/><polygon class="cls-9" points="19.98 116.97 16.2 116.79 16.22 116.36 20 116.53 19.98 116.97"/><polygon class="cls-9" points="21.7 100.7 23.7 100.23 24.8 101.97 21.36 102.26 21.7 100.7"/><polygon class="cls-10" points="19.98 116.99 16.19 116.82 16.22 116.33 20 116.51 19.98 116.99"/><path class="cls-11" d="M1912.14,341.58a1.18,1.18,0,0,1-1.2,1.15v-2.31A1.18,1.18,0,0,1,1912.14,341.58Z" transform="translate(-1879.94 -246.24)"/><ellipse class="cls-11" cx="27.51" cy="94.93" rx="3.84" ry="4.58"/><rect class="cls-11" x="25.74" y="96.88" width="3.5" height="3.91"/><path class="cls-11" d="M1902.66,341.61a1.21,1.21,0,0,0,1.23,1.18v-2.37A1.21,1.21,0,0,0,1902.66,341.61Z" transform="translate(-1879.94 -246.24)"/><path class="cls-17" d="M1907.46,336.59a4.27,4.27,0,0,0-4.11,4.41,4.72,4.72,0,0,0,0,.62h0.5l0.39-2.12h6.27l0.39,2.12h0.58a4.74,4.74,0,0,0,0-.62A4.27,4.27,0,0,0,1907.46,336.59Z" transform="translate(-1879.94 -246.24)"/><path class="cls-17" d="M1907.46,336.59h4.09a3,3,0,0,1-2,2.18l-0.32.09Z" transform="translate(-1879.94 -246.24)"/><path class="cls-17" d="M1909.47,338h2.65a1.92,1.92,0,0,1-1.33,1.42l-0.21.06Z" transform="translate(-1879.94 -246.24)"/><path class="cls-17" d="M1903.95,338.33l3.61,1.4h0a1.19,1.19,0,0,1-1.47.44l-1.81-.67Z" transform="translate(-1879.94 -246.24)"/><path class="cls-17" d="M1904.7,337.72l1.93-1.82h0a1.92,1.92,0,0,1,0,1.94l-0.11.19Z" transform="translate(-1879.94 -246.24)"/><path class="cls-17" d="M1904.9,338.47a0.8,0.8,0,0,0-.75-0.51h0a0.8,0.8,0,0,0-.8.8v2a0.8,0.8,0,0,0,.35.66c0.07,0,.14-1.12.43-1.87A3.19,3.19,0,0,1,1904.9,338.47Z" transform="translate(-1879.94 -246.24)"/><path class="cls-10" d="M1903.83,345.88a0.32,0.32,0,0,0-.18.59l0.75,0.52a1.75,1.75,0,0,0,1,.32H1908l-1.84-1.16a1.73,1.73,0,0,0-.92-0.27h-1.37Z" transform="translate(-1879.94 -246.24)"/><path class="cls-10" d="M1911.07,345.88a0.29,0.29,0,0,1,.16.53l-0.84.58a1.75,1.75,0,0,1-1,.32h-2.57l1.84-1.16a1.73,1.73,0,0,1,.92-0.27h1.48Z" transform="translate(-1879.94 -246.24)"/><rect class="cls-9" x="113.27" y="62.76" width="108.9" height="37.5"/><rect class="cls-18" x="226.99" y="41.83" width="44.05" height="110.02"/><rect class="cls-3" x="279.62" y="125.66" width="5.25" height="24.73"/><circle class="cls-6" cx="282.24" cy="113.37" r="18.01"/><circle class="cls-6" cx="282.24" cy="87.99" r="14.57"/><circle class="cls-6" cx="85.52" cy="113.16" r="16.62"/><path class="cls-6" d="M2130.27,381.52a16.65,16.65,0,0,0-16.65,16.65h33.3A16.65,16.65,0,0,0,2130.27,381.52Z" transform="translate(-1879.94 -246.24)"/><path class="cls-6" d="M2156.66,385.81a12.36,12.36,0,0,0-12.36,12.36H2169A12.36,12.36,0,0,0,2156.66,385.81Z" transform="translate(-1879.94 -246.24)"/><path class="cls-10" d="M2106.93,346.5V309h-5.77a9,9,0,0,0-9,9V346.5h14.75Z" transform="translate(-1879.94 -246.24)"/><path class="cls-9" d="M1997.18,346.5V309h-6a9,9,0,0,0-9,9V346.5h15Z" transform="translate(-1879.94 -246.24)"/><rect class="cls-18" x="113.27" y="42.41" width="116.5" height="8.53"/><rect class="cls-18" x="224.9" y="40.26" width="48.59" height="6.53"/><rect class="cls-4" x="109.74" y="40.26" width="115.16" height="6.53"/><rect class="cls-18" x="117.86" y="106.81" width="2.97" height="32.7"/><rect class="cls-18" x="183.24" y="106.81" width="2.97" height="32.7"/><rect class="cls-18" x="160.41" y="106.81" width="2.33" height="45.12"/><rect class="cls-4" x="158.75" y="114" width="23.17" height="3.21"/><path class="cls-19" d="M2058.52,382.5h-16.46a1.07,1.07,0,0,1,0-2.14h16.46A1.07,1.07,0,0,1,2058.52,382.5Z" transform="translate(-1879.94 -246.24)"/><rect class="cls-4" x="232.73" y="62.76" width="8.67" height="4"/><rect class="cls-4" x="237.39" y="56.76" width="8.67" height="4"/><rect class="cls-4" x="254.39" y="62.43" width="8.67" height="4"/><rect class="cls-4" x="244.68" y="73.42" width="8.67" height="4"/><path class="cls-4" d="M2036,341.34l0.53-.9a0.57,0.57,0,0,1,1,0l0.53,0.9a0.57,0.57,0,0,0,1-.14l0.28-1a0.57,0.57,0,0,1,.95-0.25l0.75,0.73a0.57,0.57,0,0,0,1-.4v-1a0.57,0.57,0,0,1,.85-0.49l0.91,0.51a0.57,0.57,0,0,0,.83-0.64l-0.26-1a0.57,0.57,0,0,1,.69-0.69l1,0.26a0.57,0.57,0,0,0,.64-0.83l-0.51-.91a0.57,0.57,0,0,1,.49-0.85h1a0.57,0.57,0,0,0,.4-1l-0.73-.75a0.57,0.57,0,0,1,.25-0.95l1-.28a0.57,0.57,0,0,0,.14-1l-0.9-.53a0.57,0.57,0,0,1,0-1l0.9-.53a0.57,0.57,0,0,0-.14-1l-1-.28a0.57,0.57,0,0,1-.25-0.95l0.73-.75a0.57,0.57,0,0,0-.4-1h-1a0.57,0.57,0,0,1-.49-0.85l0.51-.91a0.57,0.57,0,0,0-.64-0.83l-1,.26a0.57,0.57,0,0,1-.69-0.69l0.26-1a0.57,0.57,0,0,0-.83-0.64l-0.91.51a0.57,0.57,0,0,1-.85-0.49v-1a0.57,0.57,0,0,0-1-.4l-0.75.73a0.57,0.57,0,0,1-.95-0.25l-0.28-1a0.57,0.57,0,0,0-1-.14l-0.53.9a0.57,0.57,0,0,1-1,0l-0.53-.9a0.57,0.57,0,0,0-1,.14l-0.28,1a0.57,0.57,0,0,1-.95.25l-0.75-.73a0.57,0.57,0,0,0-1,.4v1a0.57,0.57,0,0,1-.85.49l-0.91-.51a0.57,0.57,0,0,0-.83.64l0.26,1a0.57,0.57,0,0,1-.69.69l-1-.26a0.57,0.57,0,0,0-.64.83l0.51,0.91a0.57,0.57,0,0,1-.49.85h-1a0.57,0.57,0,0,0-.4,1l0.73,0.75a0.57,0.57,0,0,1-.25.95l-1,.28a0.57,0.57,0,0,0-.14,1l0.9,0.53a0.57,0.57,0,0,1,0,1l-0.9.53a0.57,0.57,0,0,0,.14,1l1,0.28a0.57,0.57,0,0,1,.25.95l-0.73.75a0.57,0.57,0,0,0,.4,1h1a0.57,0.57,0,0,1,.49.85l-0.51.91a0.57,0.57,0,0,0,.64.83l1-.26a0.57,0.57,0,0,1,.69.69l-0.26,1a0.57,0.57,0,0,0,.83.64l0.91-.51a0.57,0.57,0,0,1,.85.49v1a0.57,0.57,0,0,0,1,.4l0.75-.73a0.57,0.57,0,0,1,.95.25l0.28,1A0.57,0.57,0,0,0,2036,341.34Zm-6.85-11.77a7.87,7.87,0,1,1,7.87,7.87A7.87,7.87,0,0,1,2029.19,329.56Z" transform="translate(-1879.94 -246.24)"/><rect class="cls-9" x="141.65" y="80.06" width="9.2" height="6.53"/><rect class="cls-4" x="2024.62" y="319.93" width="3.33" height="19.28" rx="1.66" ry="1.66" transform="translate(475.91 -1942.96) rotate(90)"/><path class="cls-4" d="M2040.66,331.49h-2.81a1.93,1.93,0,1,1,0-3.85h2.81A4.2,4.2,0,1,0,2040.66,331.49Z" transform="translate(-1879.94 -246.24)"/><rect class="cls-4" x="107.72" y="88.72" width="36.23" height="1"/><rect class="cls-4" x="170.21" y="88.72" width="35.17" height="1"/><rect class="cls-4" x="107.72" y="76.57" width="36.23" height="1"/><rect class="cls-4" x="170.21" y="76.57" width="35.17" height="1"/><path class="cls-18" d="M1928.62,322.23c3-1.35,5.08-4.15,5.36-6.28,0.24-1.88-.81-3.48-2.76-3.48a3.17,3.17,0,0,0-2.76,1.53,3.4,3.4,0,0,0-2.85-1.53,2.74,2.74,0,0,0-2.76,3.48,10,10,0,0,0,5.37,6.28,0.61,0.61,0,0,0,.4,0" transform="translate(-1879.94 -246.24)"/></svg>