<?xml version="1.0" encoding="utf-8"?>
<!-- Generator: Adobe Illustrator 24.0.0, SVG Export Plug-In . SVG Version: 6.00 Build 0)  -->
<svg version="1.1" id="Capa_1" xmlns="http://www.w3.org/2000/svg" xmlns:xlink="http://www.w3.org/1999/xlink" x="0px" y="0px"
	 viewBox="0 0 116.22 49.95" style="enable-background:new 0 0 116.22 49.95;" xml:space="preserve">
<style type="text/css">
	.st0{fill:#DC2F34;}
	.st1{fill:#004996;}
	.st2{fill:url(#SVGID_1_);}
</style>
<g>
	<path d="M1.62,39.12h4.47l1.18,7.08H7.3l3.44-7.08h4.3l-1.62,10.65h-2.78l1.29-8.18h-0.03l-3.96,8.18H5.34l-1.35-8.18H3.96
		l-1.19,8.18H0L1.62,39.12z"/>
	<path d="M29.16,43.54h4.41l-0.9,5.92c-1.87,0.46-3.22,0.49-4.19,0.49c-2.84,0-5.9-1.43-5.29-5.46c0.61-4.01,3.67-5.55,7.58-5.55
		c0.7,0,2.17,0.08,3.15,0.47l-0.58,2.32c-0.81-0.52-1.82-0.69-2.49-0.69c-2.3,0-4.34,0.96-4.72,3.45c-0.32,2.09,0.97,3.36,3.04,3.36
		c0.38,0,0.76-0.06,1.04-0.18l0.32-2.1C28.26,45.58,29.16,43.54,29.16,43.54z"/>
	<path d="M23.73,39.12c0,0-0.4,1.98-2.52,2.01l-2.46,0l-0.34,2.2l4.41,0c0,0-0.38,1.98-2.5,2.02l-2.22,0l-0.37,2.41l4.83,0.01
		c0,0-0.37,1.98-2.48,2.01l-5.5,0l1.62-10.65H23.73"/>
	<path d="M44.6,49.77l-2.48-10.65h-3.48l-5.67,10.65h2.88l4.16-8.45h0.03l0.71,4.16h-2.78c0,0-0.19,2,1.63,2h1.49l0.39,2.29H44.6z"
		/>
	<path d="M79.95,49.5c-0.87,0.2-1.83,0.43-3.34,0.43c-2.94,0-6.11-1.44-5.49-5.46c0.57-3.71,3.54-5.56,7.17-5.56
		c1.12,0,2.17,0.24,3.19,0.55l-0.59,2.3c-0.87-0.5-1.75-0.75-2.76-0.75c-2.09,0-3.67,1.47-3.97,3.45c-0.32,2.09,1.02,3.36,3.16,3.36
		c0.96,0,1.98-0.24,2.83-0.55L79.95,49.5z"/>
	<path d="M97.67,44.76c2.34-0.33,2.86-1.56,3.08-2.98c0.28-1.83-1.18-2.69-3.14-2.69h-5.24l-1.64,10.65h2.94l0.8-5.22L95,41.11h0.77
		c1.12,0,2.12,0.18,1.97,1.18c-0.19,1.21-1.88,1.27-2.82,1.27c-0.16,0.94,0.27,1.74,0.27,1.74l2.03,4.45h2.84L97.67,44.76z"/>
	<path d="M102.69,39.09h2.94l-1.64,10.65h-2.94L102.69,39.09z"/>
	<path d="M114.69,49.5c-0.87,0.2-1.83,0.43-3.34,0.43c-2.94,0-6.11-1.44-5.49-5.46c0.57-3.71,3.54-5.56,7.17-5.56
		c1.12,0,2.17,0.24,3.19,0.55l-0.59,2.3c-0.87-0.5-1.75-0.75-2.76-0.75c-2.09,0-3.67,1.47-3.97,3.45c-0.32,2.09,1.02,3.36,3.16,3.36
		c0.96,0,1.98-0.24,2.83-0.55L114.69,49.5z"/>
	<path d="M54.16,39.13c0,0-0.41,1.98-2.52,2.01l-2.45,0l-0.34,2.19l4.4,0c0,0-0.38,1.98-2.5,2.01l-2.22,0l-0.37,2.41H53
		c0,0-0.37,1.98-2.48,2.01l-5.49,0l1.64-10.64H54.16"/>
	<path d="M91.41,39.1c0,0-0.44,2.06-2.56,2.09l-0.87,0l-1.32,8.55h-2.94l1.31-8.55h-2.72l0.32-2.1H91.41z"/>
	<path d="M71.3,39.13c0,0-0.41,1.98-2.52,2.01l-2.45,0l-0.34,2.19l4.4,0c0,0-0.38,1.98-2.5,2.01l-2.22,0l-0.37,2.41h4.83
		c0,0-0.37,1.98-2.48,2.01l-5.49,0l1.64-10.64H71.3"/>
	<path d="M57.03,47.76h4.83c0,0-0.37,1.98-2.48,2.01l-5.49,0l1.64-10.63h2.84L57.03,47.76z"/>
</g>
<path class="st0" d="M63.23,28.33c0,0-40.33,10.63-19.4-7.59c0,0,20.44-15.43,41.36-20.73c0,0-25.72,4.98-45.57,19.45
	C19.77,33.91,25.36,41.62,63.23,28.33z"/>
<path class="st1" d="M70.04,7.85c0,0,40.33-10.63,19.4,7.59c0,0-20.44,15.43-41.36,20.73c0,0,25.71-4.98,45.57-19.45
	C113.5,2.27,107.91-5.44,70.04,7.85z"/>
<radialGradient id="SVGID_1_" cx="68.7342" cy="16.1118" r="12.4155" fx="60.5862" fy="9.3489" gradientTransform="matrix(0.7261 0 0 0.726 15.917 6.8445)" gradientUnits="userSpaceOnUse">
	<stop  offset="0.1278" style="stop-color:#000000;stop-opacity:0"/>
	<stop  offset="0.1631" style="stop-color:#000000;stop-opacity:0.0453"/>
	<stop  offset="0.2342" style="stop-color:#000000;stop-opacity:0.1365"/>
	<stop  offset="0.3335" style="stop-color:#000000;stop-opacity:0.2639"/>
	<stop  offset="0.3908" style="stop-color:#000000;stop-opacity:0.3374"/>
	<stop  offset="0.5998" style="stop-color:#000000;stop-opacity:0.65"/>
	<stop  offset="0.6114" style="stop-color:#000000;stop-opacity:0.6645"/>
	<stop  offset="0.6417" style="stop-color:#000000;stop-opacity:0.7023"/>
	<stop  offset="0.673" style="stop-color:#000000;stop-opacity:0.7412"/>
	<stop  offset="0.7046" style="stop-color:#000000;stop-opacity:0.7807"/>
	<stop  offset="0.7367" style="stop-color:#000000;stop-opacity:0.8207"/>
	<stop  offset="0.7695" style="stop-color:#000000;stop-opacity:0.8616"/>
	<stop  offset="0.8034" style="stop-color:#000000;stop-opacity:0.904"/>
	<stop  offset="0.8404" style="stop-color:#000000;stop-opacity:0.95"/>
	<stop  offset="0.86" style="stop-color:#0B0A0A;stop-opacity:0.95"/>
	<stop  offset="0.8777" style="stop-color:#242221;stop-opacity:0.95"/>
	<stop  offset="0.8948" style="stop-color:#3A3836;stop-opacity:0.95"/>
	<stop  offset="0.9113" style="stop-color:#53514F;stop-opacity:0.95"/>
	<stop  offset="0.9276" style="stop-color:#72706F;stop-opacity:0.95"/>
	<stop  offset="0.9436" style="stop-color:#969594;stop-opacity:0.95"/>
	<stop  offset="0.9592" style="stop-color:#C1C0C0;stop-opacity:0.95"/>
	<stop  offset="0.9722" style="stop-color:#EBEBEB;stop-opacity:0.95"/>
</radialGradient>
<circle class="st2" cx="65.42" cy="18.62" r="8.41"/>
</svg>
